<svg xmlns="http://www.w3.org/2000/svg" xmlns:xlink="http://www.w3.org/1999/xlink" xml:space="preserve"
     viewBox="0 0 512 512" version="1.1">
    <g display="inline">
        <ellipse cx="256" cy="256" fill="none" fill-opacity="1" stroke="#e91e63" stroke-width="16"
                 stroke-miterlimit="4" ry="247.979" rx="247.979" stroke-linejoin="round" />
        <g stroke="#e91e63" stroke-width="16" stroke-miterlimit="4" stroke-linecap="round">
            <path fill="none" fill-rule="evenodd" stroke-opacity="1" d="M256 223.684v-89.44M222.39 256h-61.83"
                  stroke-linejoin="miter" />
            <circle cx="256" cy="256" r="27.038" fill="#f48fb1" fill-opacity="1" stroke-linejoin="round" />
        </g>
        <path id="a" fill="none" fill-rule="evenodd" stroke="#e91e63" stroke-opacity="1" stroke-width="16"
              stroke-miterlimit="4" d="M256 76.814v-12" stroke-linecap="round" stroke-linejoin="miter" />
        <use id="b" width="100%" height="100%" x="0" y="0" xlink:href="#a" />
        <use width="100%" height="100%" x="0" y="0" transform="rotate(-90 304.174 207.993)" xlink:href="#a" />
        <g id="c">
            <use width="100%" height="100%" x="0" y="0" xlink:href="#b" />
            <use width="100%" height="100%" x="0" y="0" xlink:href="#b" transform="rotate(180 256 255.997)" />
        </g>
        <g id="d">
            <use width="100%" height="100%" x="0" y="0" xlink:href="#c" transform="translate(0 .003)" />
            <use width="100%" height="100%" x="0" y="0" xlink:href="#c" transform="rotate(90 255.999 255.999)" />
        </g>
        <use x="0" y="0" xlink:href="#d" />
        <use width="100%" height="100%" x="0" y="0" xlink:href="#d" transform="rotate(45 256 256)" />
    </g>
</svg>